<mxfile host="app.diagrams.net" modified="2023-12-11T19:04:41.705Z" agent="Mozilla/5.0 (Windows NT 10.0; Win64; x64) AppleWebKit/537.36 (KHTML, like Gecko) Chrome/119.0.0.0 Safari/537.36" etag="vkWa-Fj353bAv94hePUZ" version="22.1.7" type="device">
  <diagram name="Page-1" id="NuCtkelA6hdncMVQr5mJ">
    <mxGraphModel dx="1434" dy="738" grid="1" gridSize="10" guides="1" tooltips="1" connect="1" arrows="1" fold="1" page="1" pageScale="1" pageWidth="850" pageHeight="1100" math="0" shadow="0">
      <root>
        <mxCell id="0" />
        <mxCell id="1" parent="0" />
        <mxCell id="AAGuUKM-OjpKKJXzKCjv-16" style="edgeStyle=orthogonalEdgeStyle;rounded=0;orthogonalLoop=1;jettySize=auto;html=1;entryX=0.5;entryY=0;entryDx=0;entryDy=0;" edge="1" parent="1" source="AAGuUKM-OjpKKJXzKCjv-5" target="AAGuUKM-OjpKKJXzKCjv-7">
          <mxGeometry relative="1" as="geometry" />
        </mxCell>
        <mxCell id="AAGuUKM-OjpKKJXzKCjv-17" style="edgeStyle=orthogonalEdgeStyle;rounded=0;orthogonalLoop=1;jettySize=auto;html=1;entryX=1;entryY=0.5;entryDx=0;entryDy=0;" edge="1" parent="1" source="AAGuUKM-OjpKKJXzKCjv-5" target="AAGuUKM-OjpKKJXzKCjv-9">
          <mxGeometry relative="1" as="geometry">
            <Array as="points">
              <mxPoint x="640" y="80" />
              <mxPoint x="640" y="640" />
            </Array>
          </mxGeometry>
        </mxCell>
        <mxCell id="AAGuUKM-OjpKKJXzKCjv-5" value="CORE" style="rounded=0;whiteSpace=wrap;html=1;" vertex="1" parent="1">
          <mxGeometry x="320" y="40" width="240" height="80" as="geometry" />
        </mxCell>
        <mxCell id="AAGuUKM-OjpKKJXzKCjv-21" style="edgeStyle=orthogonalEdgeStyle;rounded=0;orthogonalLoop=1;jettySize=auto;html=1;entryX=0.5;entryY=0;entryDx=0;entryDy=0;" edge="1" parent="1" source="AAGuUKM-OjpKKJXzKCjv-7" target="AAGuUKM-OjpKKJXzKCjv-20">
          <mxGeometry relative="1" as="geometry" />
        </mxCell>
        <mxCell id="AAGuUKM-OjpKKJXzKCjv-7" value="DOMAIN" style="rounded=0;whiteSpace=wrap;html=1;" vertex="1" parent="1">
          <mxGeometry x="320" y="280" width="240" height="80" as="geometry" />
        </mxCell>
        <mxCell id="AAGuUKM-OjpKKJXzKCjv-22" style="edgeStyle=orthogonalEdgeStyle;rounded=0;orthogonalLoop=1;jettySize=auto;html=1;entryX=0.5;entryY=1;entryDx=0;entryDy=0;" edge="1" parent="1" source="AAGuUKM-OjpKKJXzKCjv-9" target="AAGuUKM-OjpKKJXzKCjv-20">
          <mxGeometry relative="1" as="geometry" />
        </mxCell>
        <mxCell id="AAGuUKM-OjpKKJXzKCjv-9" value="INFRASTUCTURE" style="rounded=0;whiteSpace=wrap;html=1;" vertex="1" parent="1">
          <mxGeometry x="320" y="600" width="240" height="80" as="geometry" />
        </mxCell>
        <mxCell id="AAGuUKM-OjpKKJXzKCjv-18" style="edgeStyle=orthogonalEdgeStyle;rounded=0;orthogonalLoop=1;jettySize=auto;html=1;entryX=0;entryY=0.5;entryDx=0;entryDy=0;" edge="1" parent="1" source="AAGuUKM-OjpKKJXzKCjv-12" target="AAGuUKM-OjpKKJXzKCjv-7">
          <mxGeometry relative="1" as="geometry" />
        </mxCell>
        <mxCell id="AAGuUKM-OjpKKJXzKCjv-19" style="edgeStyle=orthogonalEdgeStyle;rounded=0;orthogonalLoop=1;jettySize=auto;html=1;entryX=0;entryY=0.5;entryDx=0;entryDy=0;" edge="1" parent="1" source="AAGuUKM-OjpKKJXzKCjv-12" target="AAGuUKM-OjpKKJXzKCjv-9">
          <mxGeometry relative="1" as="geometry">
            <Array as="points">
              <mxPoint x="160" y="640" />
            </Array>
          </mxGeometry>
        </mxCell>
        <mxCell id="AAGuUKM-OjpKKJXzKCjv-12" value="TESTS" style="rounded=0;whiteSpace=wrap;html=1;rotation=90;" vertex="1" parent="1">
          <mxGeometry x="40" y="280" width="240" height="80" as="geometry" />
        </mxCell>
        <mxCell id="AAGuUKM-OjpKKJXzKCjv-20" value="DATA ACCESS INTERFACES" style="rounded=0;whiteSpace=wrap;html=1;dashed=1;" vertex="1" parent="1">
          <mxGeometry x="360" y="440" width="160" height="80" as="geometry" />
        </mxCell>
      </root>
    </mxGraphModel>
  </diagram>
</mxfile>
